# xmcd
#
# Track frame offsets:
# 150
# 20775
# 39295
# 62470
# 88422
# 111200
# 129002
# 144975
# 161010
#
# Disc length: 2312 seconds
#
#
# Revision: 0
# Processed by: cddbd v1.5.2PL0 Copyright (c) Steve Scherf et al.
# Submitted via: FreeRIP 2.91 
#
DISCID=70090609
DTITLE=Midnight Rodeo - Line Dancing - The Country Way
DYEAR=2003
DGENRE=Country
TTITLE0=Get Away
TTITLE1=Got Me Looking
TTITLE2=100 Proof
TTITLE3=Love Is Still Alive
TTITLE4=She Needs Her Man
TTITLE5=It's Little Things
TTITLE6=Diamond
TTITLE7=I Do
TTITLE8=You And Me
EXTD=
EXTT0=
EXTT1=
EXTT2=
EXTT3=
EXTT4=
EXTT5=
EXTT6=
EXTT7=
EXTT8=
PLAYORDER=
